<svg width="57" height="53" viewBox="0 0 57 53" fill="none" xmlns="http://www.w3.org/2000/svg">
<path d="M27.0391 26.9961C27.0391 28.2852 26.8698 29.5286 26.5312 30.7266C26.2057 31.9115 25.737 33.0247 25.125 34.0664C24.513 35.0951 23.7839 36.0391 22.9375 36.8984C22.0911 37.7448 21.1471 38.474 20.1055 39.0859C19.0638 39.6979 17.944 40.1732 16.7461 40.5117C15.5612 40.8372 14.3242 41 13.0352 41H4.59766V12.9922H13.0352C14.3242 12.9922 15.5612 13.1615 16.7461 13.5C17.944 13.8255 19.0638 14.2943 20.1055 14.9062C21.1471 15.5182 22.0911 16.2539 22.9375 17.1133C23.7839 17.9596 24.513 18.9036 25.125 19.9453C25.737 20.974 26.2057 22.0872 26.5312 23.2852C26.8698 24.4701 27.0391 25.707 27.0391 26.9961ZM21.4336 26.9961C21.4336 25.8372 21.2122 24.75 20.7695 23.7344C20.3398 22.7188 19.7409 21.8333 18.9727 21.0781C18.2174 20.3099 17.3255 19.7044 16.2969 19.2617C15.2812 18.819 14.194 18.5977 13.0352 18.5977H10.2422V35.3945H13.0352C14.194 35.3945 15.2812 35.1797 16.2969 34.75C17.3255 34.3073 18.2174 33.7083 18.9727 32.9531C19.7409 32.1849 20.3398 31.293 20.7695 30.2773C21.2122 29.2487 21.4336 28.1549 21.4336 26.9961Z" fill="url(#paint0_linear_55_5)"/>
<path d="M54.9609 38.1289C53.6589 39.2487 52.2005 40.1081 50.5859 40.707C48.9714 41.306 47.2982 41.6055 45.5664 41.6055C44.2383 41.6055 42.9557 41.4297 41.7188 41.0781C40.4948 40.7396 39.3424 40.2578 38.2617 39.6328C37.194 38.9948 36.2174 38.2331 35.332 37.3477C34.4466 36.4622 33.6849 35.4857 33.0469 34.418C32.4219 33.3372 31.9336 32.1849 31.582 30.9609C31.2435 29.724 31.0742 28.4414 31.0742 27.1133C31.0742 25.7852 31.2435 24.5026 31.582 23.2656C31.9336 22.0286 32.4219 20.8763 33.0469 19.8086C33.6849 18.7279 34.4466 17.7448 35.332 16.8594C36.2174 15.974 37.194 15.2188 38.2617 14.5938C39.3424 13.9557 40.4948 13.4674 41.7188 13.1289C42.9557 12.7773 44.2383 12.6016 45.5664 12.6016C47.2982 12.6016 48.9714 12.901 50.5859 13.5C52.2005 14.0859 53.6589 14.9453 54.9609 16.0781L51.9922 20.9609C51.1719 20.0755 50.2018 19.3984 49.082 18.9297C47.9622 18.4479 46.7904 18.207 45.5664 18.207C44.3294 18.207 43.1706 18.4414 42.0898 18.9102C41.0091 19.3789 40.0651 20.0169 39.2578 20.8242C38.4505 21.6185 37.8125 22.5625 37.3438 23.6562C36.875 24.737 36.6406 25.8893 36.6406 27.1133C36.6406 28.3372 36.875 29.4896 37.3438 30.5703C37.8125 31.638 38.4505 32.5755 39.2578 33.3828C40.0651 34.1901 41.0091 34.8281 42.0898 35.2969C43.1706 35.7656 44.3294 36 45.5664 36C46.7904 36 47.9622 35.7656 49.082 35.2969C50.2018 34.8151 51.1719 34.1315 51.9922 33.2461L54.9609 38.1289Z" fill="url(#paint1_linear_55_5)"/>
<defs>
<linearGradient id="paint0_linear_55_5" x1="15.5" y1="1.12503" x2="15.5" y2="51.0866" gradientUnits="userSpaceOnUse">
<stop stop-color="#32E37F"/>
<stop offset="1" stop-color="#1988C5"/>
</linearGradient>
<linearGradient id="paint1_linear_55_5" x1="43" y1="1.12503" x2="43" y2="51.0866" gradientUnits="userSpaceOnUse">
<stop stop-color="#32E37F"/>
<stop offset="1" stop-color="#1988C5"/>
</linearGradient>
</defs>
</svg>
